<svg width="1024" height="1024" viewBox="0 0 1024 1024" fill="none" xmlns="http://www.w3.org/2000/svg">
  <rect width="1024" height="1024" rx="224" fill="#FFFFFF"/>
  <rect x="112" y="112" width="800" height="800" rx="208" fill="#FFFFFF"/>
  <rect x="14" y="14" width="996" height="996" rx="224" stroke="#111111" stroke-width="14"/>
  <rect x="30" y="30" width="964" height="964" rx="208" stroke="#D6001C" stroke-width="14"/>
  <rect x="46" y="46" width="932" height="932" rx="192" stroke="#E2B22E" stroke-width="14"/>
  <text x="512" y="108" text-anchor="middle" font-family="Arial, sans-serif" font-size="72" font-weight="900" fill="#111111">
    <tspan x="512" dy="0">Leben in</tspan>
    <tspan x="512" dy="74">Deutschland</tspan>
  </text>

  <defs>
    <clipPath id="shieldClipLight">
      <path d="M512 188L770 292V524C770 712 656 866 512 919C368 866 254 712 254 524V292L512 188Z"/>
    </clipPath>
  </defs>

  <g clip-path="url(#shieldClipLight)">
    <rect x="244" y="188" width="536" height="248" fill="#111111"/>
    <rect x="244" y="436" width="536" height="248" fill="#D6001C"/>
    <rect x="244" y="684" width="536" height="248" fill="#E2B22E"/>
  </g>

  <circle cx="512" cy="670" r="110" fill="#1F7A4D"/>
  <path d="M458 670L498 710L570 638" stroke="#FFFFFF" stroke-width="40" stroke-linecap="round" stroke-linejoin="round"/>

  <text x="512" y="964" text-anchor="middle" font-family="Arial, sans-serif" font-size="68" font-weight="900" fill="#111111">Einb&#252;rgerungstest</text>
</svg>
