<svg width="1024" height="1024" viewBox="0 0 1024 1024" fill="none" xmlns="http://www.w3.org/2000/svg">
  <!-- Warm cream background -->
  <rect width="1024" height="1024" rx="224" fill="#F5F0E8"/>

  <!-- "LEBEN" text -->
  <text x="512" y="200" text-anchor="middle" font-family="Arial, Helvetica, sans-serif" font-size="140" font-weight="900" fill="#111111" letter-spacing="18">LEBEN</text>

  <!-- Flag shield -->
  <defs>
    <clipPath id="shieldC">
      <path d="M512 270L740 360V560C740 720 640 852 512 900C384 852 284 720 284 560V360L512 270Z"/>
    </clipPath>
  </defs>
  <g clip-path="url(#shieldC)">
    <rect x="274" y="270" width="476" height="216" fill="#111111"/>
    <rect x="274" y="486" width="476" height="216" fill="#DD0000"/>
    <rect x="274" y="702" width="476" height="216" fill="#FFCC00"/>
  </g>
  <path d="M512 270L740 360V560C740 720 640 852 512 900C384 852 284 720 284 560V360L512 270Z" stroke="#D8D0C4" stroke-width="6"/>

  <!-- Checkmark -->
  <circle cx="512" cy="700" r="100" fill="#1F7A4D"/>
  <path d="M462 700L497 735L567 665" stroke="#FFFFFF" stroke-width="32" stroke-linecap="round" stroke-linejoin="round"/>

  <!-- Subtle subtitle -->
  <text x="512" y="978" text-anchor="middle" font-family="Arial, Helvetica, sans-serif" font-size="64" font-weight="700" fill="#B0A898">in Deutschland</text>
</svg>
