<svg xmlns="http://www.w3.org/2000/svg" width="64" height="64" viewBox="0 0 64 64" fill="none" stroke="currentColor" stroke-width="2.5" stroke-linecap="round" stroke-linejoin="round">
  <!-- Clipboard -->
  <path d="M22 12H16a5 5 0 0 0-5 5v34a5 5 0 0 0 5 5h32a5 5 0 0 0 5-5V17a5 5 0 0 0-5-5h-6"/>
  <rect x="22" y="5" width="20" height="10" rx="3"/>
  <!-- Row 1: checkmark + line -->
  <path d="M19 28l4 4 7-7"/>
  <line x1="36" y1="27" x2="46" y2="27"/>
  <!-- Row 2: checkmark + line -->
  <path d="M19 42l4 4 7-7"/>
  <line x1="36" y1="41" x2="46" y2="41"/>
</svg>
