<svg xmlns="http://www.w3.org/2000/svg" width="64" height="64" viewBox="0 0 64 64" fill="none" stroke="currentColor" stroke-width="2.5" stroke-linecap="round" stroke-linejoin="round">
  <!-- Head -->
  <circle cx="32" cy="14" r="8"/>
  <!-- Hair parting -->
  <path d="M27 10c3-3 7-3 10 0"/>

  <!-- Shoulders/body -->
  <path d="M18 38c0-8 6-14 14-14s14 6 14 14"/>

  <!-- Open book -->
  <!-- Left page -->
  <path d="M14 40c0 0 6-3 18-3v18c-12 0-18 3-18 3V40z"/>
  <!-- Right page -->
  <path d="M50 40c0 0-6-3-18-3v18c12 0 18 3 18 3V40z"/>
  <!-- Book spine -->
  <line x1="32" y1="37" x2="32" y2="55"/>

  <!-- Hands holding book -->
  <path d="M18 38l-4 2"/>
  <path d="M46 38l4 2"/>
</svg>
